<svg width="24" height="24" viewBox="0 0 24 24" fill="none" xmlns="http://www.w3.org/2000/svg">
<path d="M12 18V15" stroke="#A5A5A5" stroke-width="1.5" stroke-linecap="round" stroke-linejoin="round"/>
<path fill-rule="evenodd" clip-rule="evenodd" d="M13.4601 3.41468C12.6631 2.77405 11.3236 2.77624 10.5392 3.40521L3.60668 8.95722C3.3468 9.16379 3.09554 9.52218 2.92948 9.95744C2.76338 10.3928 2.7125 10.8265 2.76896 11.1519L2.76975 11.1565L4.09951 19.1151C4.09954 19.1153 4.09948 19.1149 4.09951 19.1151C4.27883 20.1742 5.32639 21.0601 6.4 21.0601H17.6C18.6629 21.0601 19.7214 20.1653 19.9005 19.1148C19.9006 19.1146 19.9005 19.115 19.9005 19.1148L20.6102 14.8768L21.2298 11.1592C21.2299 11.1589 21.2299 11.1585 21.23 11.1582C21.2833 10.8302 21.2297 10.3942 21.063 9.95743C20.8963 9.52049 20.6466 9.16151 20.3905 8.95498C20.3902 8.95474 20.3899 8.9545 20.3896 8.95426L13.4617 3.41591L13.4601 3.41468ZM14.399 2.24482C13.0561 1.16624 10.9365 1.16418 9.60116 2.23469L2.67331 7.78298C2.6729 7.7833 2.67249 7.78363 2.67208 7.78395C2.15258 8.19736 1.76427 8.80349 1.52801 9.42275C1.29191 10.0416 1.17778 10.7519 1.2906 11.4058C1.29074 11.4066 1.29089 11.4074 1.29103 11.4083L2.62048 19.3651C2.92144 21.1457 4.59379 22.5601 6.4 22.5601H17.6C19.3969 22.5601 21.0782 21.1352 21.3794 19.3659L22.0897 15.124L22.7098 11.4034L22.7102 11.4009C22.8166 10.7491 22.7002 10.0405 22.4645 9.42275C22.2289 8.8052 21.844 8.1995 21.3304 7.78592L14.3998 2.24551C14.3996 2.24528 14.3993 2.24505 14.399 2.24482Z" fill="#A5A5A5"/>
</svg>
