<svg width="47" height="24" viewBox="0 0 47 24" fill="none" xmlns="http://www.w3.org/2000/svg">
<rect width="47" height="24" rx="4" fill="#F5C518"/>
<path d="M6 18.5H9.64588V5.5H6V18.5Z" fill="black"/>
<path d="M17.4279 5.5L16.6119 11.5728L16.105 8.26974C15.958 7.21173 15.817 6.28849 15.682 5.5H11.1041V18.5H14.197L14.209 9.91553L15.511 18.5H17.7129L18.9489 9.72629L18.9579 18.5H22.0418V5.5H17.4279Z" fill="black"/>
<path d="M23.5004 18.5V5.5H29.1913C30.4781 5.5 31.5213 6.52552 31.5213 7.79421V16.2058C31.5213 17.4728 30.4798 18.5 29.1913 18.5H23.5004ZM27.7531 7.83966C27.6085 7.76224 27.3318 7.72497 26.9294 7.72497V16.255C27.4607 16.255 27.7877 16.1603 27.9103 15.9625C28.0329 15.7675 28.0958 15.24 28.0958 14.3741V9.33348C28.0958 8.7457 28.0738 8.37009 28.0329 8.20379C27.992 8.03749 27.9009 7.91707 27.7531 7.83966Z" fill="black"/>
<path d="M38.3967 8.75495H38.6298C39.9388 8.75495 40.9999 9.77027 40.9999 11.0213V16.2337C40.9999 17.4853 39.9391 18.5 38.6298 18.5H38.3967C37.5958 18.5 36.8876 18.1199 36.4585 17.5382L36.2486 18.333H32.979V5.5H36.4676V9.67483C36.9184 9.11845 37.613 8.75495 38.3967 8.75495ZM37.6498 15.0942V12.0138C37.6498 11.5048 37.6168 11.1708 37.5481 11.017C37.4793 10.8633 37.205 10.7646 37.0126 10.7646C36.8201 10.7646 36.5234 10.8448 36.4656 10.98V12.0138V15.1928V16.1943C36.5316 16.3427 36.8146 16.4253 37.0126 16.4253C37.2105 16.4253 37.4986 16.3454 37.5591 16.1943C37.6196 16.0432 37.6498 15.6747 37.6498 15.0942Z" fill="black"/>
</svg>
